<?xml version="1.0" encoding="utf-8"?>
<!-- Generator: Adobe Illustrator 16.0.0, SVG Export Plug-In . SVG Version: 6.00 Build 0)  -->
<!DOCTYPE svg PUBLIC "-//W3C//DTD SVG 1.1//EN" "http://www.w3.org/Graphics/SVG/1.1/DTD/svg11.dtd">
<svg version="1.1" id="Objects" xmlns="http://www.w3.org/2000/svg" xmlns:xlink="http://www.w3.org/1999/xlink" x="0px" y="0px"
	 width="800px" height="800px" viewBox="0 0 800 800" enable-background="new 0 0 800 800" xml:space="preserve">
<g opacity="0.5">
	<path fill="#FFFFFF" d="M361.686,308.975L288.7,329.277c-0.874,0.236-1.646,0.748-2.229,1.441l-51.912,62.425
		c-0.669,0.811-1.023,1.811-1.023,2.835c0,0.441,0.063,0.866,0.197,1.299c0.441,1.433,1.567,2.543,3,2.961l73.694,21.443
		c-0.63,15.624,2.945,29.413,10.741,40.762l-23.341,28.412c-1.473,1.804-1.323,4.426,0.37,6.041l22.2,21.097
		c0.858,0.819,2.016,1.252,3.213,1.213c1.189-0.04,2.315-0.56,3.119-1.441l25.798-28.129c6.552,2.401,22.877,6.709,47.714,2.142
		l26.397,72.292c0.512,1.41,1.701,2.457,3.158,2.796c1.457,0.347,2.984-0.078,4.071-1.11l58.811-55.976
		c0.686-0.653,1.142-1.496,1.315-2.434l13.183-73.733c16.041-13.876,32.271-30.02,48.273-47.998
		c92.122-103.524,105.872-184.448,105.872-223.469c0-12.844-1.56-19.924-1.623-20.223c-0.394-1.756-1.811-3.095-3.583-3.402
		c-4.583-0.788-113.794-17.624-255.914,124.496C400.021,263.206,381.555,282.255,361.686,308.975z M441.129,315.692
		c0-24.728,20.042-44.77,44.77-44.77s44.77,20.042,44.77,44.77s-20.042,44.769-44.77,44.769S441.129,340.42,441.129,315.692z"/>
</g>
<g opacity="0.5">
	<defs>
		<rect id="SVGID_1_" y="383.591" opacity="0.5" width="365.592" height="416.409"/>
	</defs>
	<clipPath id="SVGID_2_">
		<use xlink:href="#SVGID_1_"  overflow="visible"/>
	</clipPath>
	<path clip-path="url(#SVGID_2_)" fill="#FFFFFF" d="M297.141,535.009L114.555,717.595c-3.128,3.129-8.201,3.129-11.33,0
		l-5.639-5.64c-3.129-3.129-3.129-8.201,0-11.33l182.586-182.586c3.129-3.129,8.202-3.129,11.33,0l5.64,5.64
		C300.27,526.808,300.27,531.88,297.141,535.009z"/>
	<path clip-path="url(#SVGID_2_)" fill="#FFFFFF" d="M289.642,601.356L107.055,783.942c-3.129,3.129-8.201,3.129-11.33,0l-5.64-5.64
		c-3.128-3.129-3.128-8.201,0-11.33l182.586-182.586c3.129-3.129,8.201-3.129,11.33,0l5.64,5.64
		C292.771,593.155,292.771,598.228,289.642,601.356z"/>
	<path clip-path="url(#SVGID_2_)" fill="#FFFFFF" d="M225.029,545.352L42.442,727.938c-3.128,3.129-8.201,3.129-11.33,0l-5.64-5.64
		c-3.128-3.129-3.128-8.201,0-11.33l182.586-182.586c3.129-3.129,8.202-3.129,11.33,0l5.64,5.64
		C228.158,537.15,228.158,542.223,225.029,545.352z"/>
</g>
</svg>
