<?xml version="1.0" encoding="utf-8"?>
<!-- Generator: Adobe Illustrator 16.0.0, SVG Export Plug-In . SVG Version: 6.00 Build 0)  -->
<!DOCTYPE svg PUBLIC "-//W3C//DTD SVG 1.1//EN" "http://www.w3.org/Graphics/SVG/1.1/DTD/svg11.dtd">
<svg version="1.1" id="Layer_1" xmlns="http://www.w3.org/2000/svg" xmlns:xlink="http://www.w3.org/1999/xlink" x="0px" y="0px"
	 width="1889.049px" height="700px" viewBox="0 0 1889.049 700" enable-background="new 0 0 1889.049 700" xml:space="preserve">
<g>
	<path fill="#93C858" d="M117.643,135.496c3.456-0.025,4.299,2.991,5.634,5.15c26.979,43.529,67.33,64.023,117.159,68.876
		c28.155,2.743,56.376,2.259,84.571,3.19c27.955,0.923,55.822,2.733,82.979,10.428c45.399,12.862,77.443,41.916,100.428,82.113
		c6.033,10.55,11.455,21.386,14.544,33.741c-4.588-3.464-9.213-6.88-13.758-10.4c-32.211-24.936-69.142-37.391-109.275-41.431
		c-40.149-4.041-80.469-1.801-120.683-3.324c-22.846-0.865-45.461-3.56-67.021-11.965c-38.261-14.914-61.736-43.869-76.825-80.794
		c-6.408-15.681-11.769-31.698-15.475-48.26c-0.438-1.957,0.202-4.595-2.279-5.849C117.643,136.479,117.643,135.987,117.643,135.496
		z"/>
	<path fill="#B3D68D" d="M596.775,564.504c-30.43-28.391-67.372-41.777-107.885-47.36c-40.549-5.589-81.312-3.729-122.013-4.219
		c-20.458-0.244-40.567-2.59-60.103-8.969c-29.994-9.796-52.865-28.501-69.192-55.331c-13.664-22.45-21.861-47.061-28.083-72.408
		c-0.375-1.524-0.049-3.222-0.049-5.505c5.244,6.944,9.991,13.425,14.934,19.751c20.825,26.645,48.782,40.918,81.454,47.391
		c25.419,5.036,51.108,5.113,76.84,6.133c30.298,1.201,60.737,0.199,90.789,6.597c47.913,10.205,84.146,35.966,109.059,78.036
		c6.892,11.633,13.169,23.548,18.672,35.885C599.723,564.504,598.249,564.504,596.775,564.504z"/>
	<path fill="#36154A" d="M1355.838,295.869c-2.506,20.267-4.88,38.475-6.986,56.712c-3.828,33.155-7.412,66.338-7.567,99.771
		c-0.069,15.185,1.277,16.909,15.883,22.357c2.902,1.082,6.209,1.488,9.931,5.632c-25.577,1.08-49.622-3.662-74.313-0.5
		c1.15-4.51,4.095-3.498,6.142-3.833c12.143-1.988,15.746-5.077,17.747-17.006c5.686-33.896,9.006-68.101,12.753-102.242
		c4.769-43.418,9.168-86.877,13.748-130.316c0.18-1.706,0.417-3.435,0.896-5.075c0.751-2.57,2.09-2.374,3.485-0.439
		c0.574,0.793,1.051,1.659,1.516,2.521c30.728,56.904,62.128,113.467,88.84,172.436c5.534,12.217,10.683,24.608,16.84,38.842
		c6.502-14.28,12.239-26.77,17.887-39.301c25.359-56.275,49.405-113.18,79.633-167.125c1.673-2.986,2.573-8.712,6.225-7.852
		c3.325,0.783,1.988,6.399,2.335,9.901c6.986,70.305,11.954,140.836,23.685,210.606c0.567,3.382,1.477,6.706,2.083,10.084
		c2.286,12.717,10.248,19.541,22.535,22.073c4.554,0.938,9.057,2.146,13.551,3.344c1.254,0.333,2.063,1.314,1.738,2.756
		c-0.282,1.242-1.38,1.224-2.33,1.224c-24.249-0.02-48.511,0.421-73.214-1.422c11.148-26.701,4.785-53.482,2.691-79.857
		c-2.735-34.461-7.459-68.765-11.421-103.975c-4.372,5.096-6.56,10.695-9.057,15.992c-23.596,50.055-47.038,100.184-70.532,150.288
		c-1.976,4.211-3.97,8.416-6.031,12.586c-3.434,6.941-3.849,6.999-8.26,0.86c-15.355-21.382-27.655-44.47-38.87-68.256
		c-16.504-35.005-31.106-70.882-48.517-105.467C1358.238,299.907,1357.461,298.689,1355.838,295.869z"/>
	<path fill="#A2CF75" d="M170.695,265.25c23.849,34.239,56.586,54.332,97.597,61.103c19.161,3.166,38.556,3.091,57.894,4.076
		c31.057,1.578,62.224,0.458,93.169,5.166c56.172,8.549,97.407,37.778,124.445,87.476c3.635,6.678,7.284,13.354,10.634,20.178
		c1.306,2.659,3.172,5.464,1.909,9.86c-10.95-9.076-21.519-17.292-33.299-23.807c-25.471-14.083-52.855-21.802-81.577-25.566
		c-26.137-3.427-52.401-2.389-78.621-3.216c-27.628-0.873-55.373,0.528-82.817-4.953c-45.945-9.18-76.598-36.723-95.518-78.357
		c-6.868-15.116-13.538-30.499-15.453-47.329C168.863,268.075,167.064,265.703,170.695,265.25z"/>
	<path fill="#36154A" d="M900.69,480.256c3.236-5.469,8.582-6.641,13.247-8.667c4.112-1.788,5.383-3.456,3.552-8.077
		c-10.012-25.264-19.74-50.637-29.351-76.055c-1.454-3.849-3.418-5.136-7.518-5.093c-20.386,0.213-40.777,0.185-61.163,0.018
		c-3.716-0.032-5.763,1.023-7.098,4.618c-8.451,22.739-17.011,45.438-22.695,69.081c-3.403,14.16-1.44,17.241,12.646,20.745
		c1.402,0.352,3.701-0.259,3.875,3.807c-24.907-3.09-49.701-2.146-75.005,0.236c1.183-4.411,3.968-3.546,5.796-3.974
		c15.802-3.688,26.272-12.993,32.278-28.192c19.535-49.443,36.495-99.814,54.514-149.805c8.631-23.945,17.559-47.785,26.379-71.661
		c0.581-1.568,1.396-3.048,2.669-5.795c3.857,6.552,5.711,12.794,7.896,18.854c22.011,61.061,44.865,121.783,72.303,180.667
		c4.86,10.434,10.435,20.538,15.236,30.996c6.655,14.5,17.884,22.258,33.518,24.089c1.376,0.161,3.055-0.136,4.123,3.424
		C957.223,480.652,928.921,475.362,900.69,480.256z"/>
	<path fill="#36154A" d="M994.926,479.823c3.179-4.078,7.623-3.577,11.44-4.927c7.36-2.602,11.243-7.532,11.798-15.198
		c0.177-2.446,0.237-4.907,0.237-7.36c0.013-66.092,0.015-132.183,0.007-198.275c-0.001-13.513-2.022-16.143-14.938-19.512
		c-4.679-1.221-9.476-2.151-13.849-6.234c5.212-2.168,10.015-1.219,14.58-1.039c36.076,1.421,72.17,0.757,108.254,1.091
		c6.914,0.065,13.788-0.941,20.241-3.328c4.505-1.667,5.905-0.915,4.997,3.813c-2.496,12.999-4.95,26.007-7.438,39.007
		c-0.273,1.424-0.504,3.183-2.377,3.125c-1.558-0.046-1.394-1.628-1.609-2.816c-3.502-19.312-8.772-24.566-28.188-25.998
		c-15.511-1.143-30.692,3.323-46.141,3.927c-2.553,0.1-2.316,2.036-2.316,3.74c-0.006,28.008,0.025,56.019-0.046,84.027
		c-0.008,2.864,1.021,3.887,3.853,3.875c19.408-0.079,38.818,0.027,58.228-0.129c5.593-0.043,9.133-4.331,13.167-7.463
		c2.009-1.561,4.336-2.842,4.028,1.357c-1.187,16.144-2.689,32.258-7.055,47.938c-0.092,0.339-0.762,0.513-1.163,0.758
		c-2.019-0.48-1.614-2.143-1.725-3.542c-1.253-15.908-7.941-23.242-23.925-24.156c-13.717-0.786-27.507-0.169-41.262-0.346
		c-3.245-0.039-4.177,1.105-4.165,4.271c0.104,30.22-0.3,60.447,0.238,90.658c0.264,14.748,12.193,27.328,26.658,30.282
		c1.279,0.261,3.092-0.316,3.675,3.743C1051.553,476.987,1023.299,478.724,994.926,479.823z"/>
	<path fill="#36154A" d="M1159.728,420.243c3.645,3.588,2.426,6.779,2.7,9.497c2.022,20.333,12.351,32.976,32.241,37.883
		c18.518,4.568,35.607,1.011,50.389-11.243c14.351-11.898,17.567-28.083,9.495-44.962c-7.884-16.487-20.529-29.157-33.31-41.755
		c-16.411-16.178-34.216-31.028-48.19-49.551c-7.407-9.816-14.043-20.196-15.979-32.66c-2.854-18.389,3.713-33.226,18.107-44.633
		c24.377-19.319,52.729-23.48,82.665-21.128c4.132,0.326,8.191,1.809,12.314,1.973c6.948,0.275,8.418,3.669,7.471,9.965
		c-1.712,11.396-2.857,22.874-4.274,34.313c-0.263,2.126-0.02,4.456-2.074,6.164c-3.484-1.372-2.661-4.94-3.49-7.438
		c-7.171-21.591-23.188-33.712-43.456-32.571c-29.796,1.683-47.318,32.568-33.43,58.965c8.204,15.59,21.25,26.785,34.457,37.832
		c12.61,10.549,25.519,20.791,36.807,32.794c15.961,16.974,26.116,36.122,21.683,60.497c-1.856,10.196-6.397,19.103-13.266,26.632
		c-24.762,27.139-55.257,39.431-91.794,32.503c-20.361-3.864-28.248-16.745-24.89-37.072
		C1155.301,437.802,1157.623,429.509,1159.728,420.243z"/>
	<path fill="#36154A" d="M1646.348,419.946c3.354,4.126,2.379,7.255,2.661,10.006c2.044,20.05,12.197,32.526,31.699,37.563
		c17.656,4.56,34.146,1.46,48.832-9.416c15.972-11.828,19.99-29.093,11.406-46.961c-8.032-16.721-20.955-29.506-33.938-42.244
		c-16.112-15.81-33.488-30.412-47.221-48.498c-7.744-10.199-14.599-21.024-16.313-34.118c-2.918-22.321,7.779-37.958,25.803-48.967
		c28.297-17.285,59.016-19.692,90.92-12.974c3.716,0.782,4.536,2.775,4.116,6.199c-1.617,13.15-3.048,26.323-4.687,39.471
		c-0.179,1.44,0.16,3.902-2.34,3.79c-1.947-0.089-1.52-2.157-1.917-3.477c-2.267-7.559-5.188-14.787-10.248-20.994
		c-13.846-16.981-36.325-20.419-54.864-8.36c-17.256,11.224-22.622,33.585-12.488,52.673c8.139,15.33,21.052,26.352,34.085,37.239
		c12.625,10.547,25.518,20.818,36.832,32.813c15.813,16.759,25.909,35.671,21.8,59.79c-2.335,13.696-9.437,24.768-19.387,33.847
		c-23.961,21.863-51.947,32.534-84.453,26.314c-22.019-4.211-29.979-17.061-26.057-38.987
		C1641.988,436.828,1644.177,429.146,1646.348,419.946z"/>
	<path fill="#36154A" d="M614.69,419.992c3.28,3.523,2.364,5.825,2.474,7.881c1.128,21.018,12.204,34.917,32.726,39.871
		c17.687,4.271,34.184,1.031,48.678-10.179c15.52-12.004,19.208-28.843,10.704-46.511c-8.041-16.705-20.858-29.577-33.928-42.215
		c-14.466-13.989-29.491-27.426-42.661-42.701c-5.945-6.894-11.027-14.409-15.108-22.575c-11.569-23.139-7.429-43.951,12.407-60.655
		c17.894-15.072,39.464-20.208,62.09-21.812c11.54-0.817,23.004,0.429,34.393,2.73c5.189,1.048,6.781,3.183,6.047,8.402
		c-1.775,12.624-3.049,25.32-4.567,37.982c-0.163,1.379,0.092,3.412-1.753,3.579c-2.418,0.217-2.181-2.128-2.567-3.68
		c-1.257-5.027-3.239-9.75-5.746-14.271c-11.744-21.156-35.855-28.05-56.882-16.259c-19.646,11.021-25.679,34.751-14.027,55.518
		c7.971,14.207,20.033,24.673,32.284,34.952c14.473,12.145,29.387,23.83,41.895,38.116c28.124,32.12,24.364,69.998-9.476,96.089
		c-13.054,10.063-27.805,16.351-43.954,19.505c-11.208,2.188-22.397,2.671-33.558-0.13c-20.477-5.134-28.396-16.313-25.453-36.958
		C609.929,438.109,612.46,429.735,614.69,419.992z"/>
	<path fill="#BBDC99" d="M170.695,265.25c-1.813,1.094-1.222,3.041-1.636,4.63c-1.505-2.03-2.046-4.478-0.618-6.424
		C169.151,262.486,170.243,264.175,170.695,265.25z"/>
	<path fill="#FEFEFE" d="M880.092,366.864c-20.689,0-40.494,0-60.713,0c0.511-1.796,0.859-3.19,1.301-4.555
		c9.646-29.771,19.302-59.541,30.522-89.483C860.75,303.904,870.296,334.981,880.092,366.864z"/>
</g>
</svg>
